Coordinates
version=1
nRows=32
nColumns=12
inDegrees=yes

Units are S.I. units (second, meters, Newtons, ...)
Angles are in degrees

endheader
time	SC_y	SC_z	SC_x	AC_y	AC_z	AC_x	GH_y	GH_z	GH_yy	EL_x	PS_y
       0.0               -13.7          29.79          77.85          51.78          0.995         -17.14         -6.782          18.03          143.9          26.39          33.17
   0.00283               -13.7          29.79          77.85          51.78         0.9926         -17.14         -6.784          18.04          143.8           26.4          33.19
  0.005659              -13.71          29.79          77.85          51.79           0.99         -17.14         -6.785          18.05          143.8           26.4          33.21
  0.008489              -13.71          29.78          77.84          51.79         0.9873         -17.13         -6.787          18.06          143.8          26.41          33.23
   0.01132              -13.71          29.78          77.84          51.79         0.9844         -17.13         -6.788          18.07          143.8          26.41          33.25
   0.01415              -13.71          29.78          77.84           51.8         0.9812         -17.12          -6.79          18.08          143.8          26.42          33.27
   0.01698              -13.72          29.77          77.84           51.8         0.9779         -17.12         -6.792           18.1          143.8          26.43           33.3
   0.01981              -13.72          29.77          77.83           51.8         0.9744         -17.11         -6.794          18.11          143.8          26.44          33.32
   0.02264              -13.72          29.77          77.83          51.81         0.9705         -17.11         -6.796          18.13          143.7          26.44          33.35
   0.02547              -13.73          29.76          77.83          51.81         0.9665          -17.1         -6.798          18.14          143.7          26.45          33.38
    0.0283              -13.73          29.76          77.82          51.81         0.9621         -17.09           -6.8          18.16          143.7          26.46          33.41
   0.03112              -13.73          29.75          77.82          51.82         0.9573         -17.09         -6.803          18.18          143.7          26.47          33.45
   0.03395              -13.74          29.75          77.81          51.82         0.9523         -17.08         -6.806           18.2          143.6          26.48          33.48
   0.03678              -13.74          29.74          77.81          51.83         0.9468         -17.07         -6.809          18.22          143.6           26.5          33.53
   0.03961              -13.75          29.74           77.8          51.84         0.9408         -17.06         -6.812          18.25          143.6          26.51          33.57
   0.04244              -13.75          29.73           77.8          51.84         0.9343         -17.05         -6.816          18.27          143.5          26.52          33.62
   0.04527              -13.76          29.72          77.79          51.85         0.9273         -17.04          -6.82           18.3          143.5          26.54          33.67
    0.0481              -13.77          29.71          77.79          51.86         0.9197         -17.03         -6.824          18.33          143.5          26.55          33.72
   0.05093              -13.77          29.71          77.78          51.87         0.9113         -17.02         -6.828          18.37          143.4          26.57          33.78
   0.05376              -13.78           29.7          77.77          51.87         0.9022          -17.0         -6.833           18.4          143.4          26.59          33.85
   0.05659              -13.79          29.69          77.76          51.88         0.8922         -16.99         -6.839          18.45          143.3          26.61          33.93
   0.05942               -13.8          29.68          77.75           51.9         0.8811         -16.97         -6.845          18.49          143.3          26.64          34.01
   0.06225              -13.81          29.66          77.74          51.91         0.8689         -16.95         -6.852          18.54          143.2          26.66           34.1
   0.06508              -13.82          29.65          77.73          51.92         0.8554         -16.93         -6.859          18.59          143.1          26.69          34.19
   0.06791              -13.84          29.63          77.72          51.94         0.8404         -16.91         -6.868          18.66          143.1          26.73           34.3
   0.07074              -13.85          29.62           77.7          51.95         0.8236         -16.89         -6.877          18.72          143.0          26.76          34.43
   0.07357              -13.87           29.6          77.69          51.97         0.8048         -16.86         -6.887           18.8          142.9           26.8          34.57
    0.0764              -13.88          29.58          77.67          51.99         0.7837         -16.83         -6.899          18.89          142.8          26.85          34.72
   0.07923              -13.91          29.55          77.65          52.02         0.7598         -16.79         -6.912          18.98          142.6           26.9           34.9
   0.08206              -13.93          29.52          77.63          52.04         0.7327         -16.75         -6.927          19.09          142.5          26.96          35.09
   0.08489              -13.96          29.49           77.6          52.07         0.7018          -16.7         -6.944          19.22          142.3          27.03          35.32
   0.08772              -13.99          29.45          77.57          52.11         0.6663         -16.65         -6.963          19.36          142.2           27.1          35.58
